<!-- <svg xmlns="http://www.w3.org/2000/svg" fill="none" viewBox="0 0 24 24" stroke-width="1.5" stroke="currentColor"
  class="w-6 h-6">
  <path stroke-linecap="round" stroke-linejoin="round"
    d="M6.75 3v2.25M17.25 3v2.25M3 18.75V7.5a2.25 2.25 0 0 1 2.25-2.25h13.5A2.25 2.25 0 0 1 21 7.5v11.25m-18 0A2.25 2.25 0 0 0 5.25 21h13.5A2.25 2.25 0 0 0 21 18.75m-18 0v-7.5A2.25 2.25 0 0 1 5.25 9h13.5A2.25 2.25 0 0 1 21 11.25v7.5m-9-6h.008v.008H12v-.008ZM12 15h.008v.008H12V15Zm0 2.25h.008v.008H12v-.008ZM9.75 15h.008v.008H9.75V15Zm0 2.25h.008v.008H9.75v-.008ZM7.5 15h.008v.008H7.5V15Zm0 2.25h.008v.008H7.5v-.008Zm6.75-4.5h.008v.008h-.008v-.008Zm0 2.25h.008v.008h-.008V15Zm0 2.25h.008v.008h-.008v-.008Zm2.25-4.5h.008v.008H16.5v-.008Zm0 2.25h.008v.008H16.5V15Z" />
</svg> -->
<!-- <svg width="24" height="24" viewBox="0 0 24 24" fill="none" xmlns="http://www.w3.org/2000/svg"> -->
  <svg xmlns="http://www.w3.org/2000/svg" fill="none" viewBox="0 0 24 24" stroke-width="1.5" stroke="currentColor"
  class="w-6 h-6">
  <path
    d="M1 11.8605C1 7.79942 1 5.76835 2.26215 4.50727C3.52323 3.24512 5.55431 3.24512 9.61539 3.24512H13.9231C17.9842 3.24512 20.0152 3.24512 21.2763 4.50727C22.5385 5.76835 22.5385 7.79942 22.5385 11.8605V14.0143C22.5385 18.0754 22.5385 20.1065 21.2763 21.3676C20.0152 22.6297 17.9842 22.6297 13.9231 22.6297H9.61539C5.55431 22.6297 3.52323 22.6297 2.26215 21.3676C1 20.1065 1 18.0754 1 14.0143V11.8605Z"
    stroke="currentColor" stroke-width="1.5" />
  <path d="M6.38461 3.24515V1.62976M17.1538 3.24515V1.62976M1.53845 8.62976H22" stroke="currentColor" stroke-width="1.5"
    stroke-linecap="round" />
  <path
    d="M17.7308 17.2451C17.7308 17.3981 17.67 17.5448 17.5618 17.653C17.4536 17.7612 17.3068 17.822 17.1538 17.822C17.0008 17.822 16.8541 17.7612 16.7459 17.653C16.6377 17.5448 16.5769 17.3981 16.5769 17.2451C16.5769 17.0921 16.6377 16.9453 16.7459 16.8371C16.8541 16.7289 17.0008 16.6682 17.1538 16.6682C17.3068 16.6682 17.4536 16.7289 17.5618 16.8371C17.67 16.9453 17.7308 17.0921 17.7308 17.2451ZM17.7308 12.9374C17.7308 13.0904 17.67 13.2371 17.5618 13.3453C17.4536 13.4535 17.3068 13.5143 17.1538 13.5143C17.0008 13.5143 16.8541 13.4535 16.7459 13.3453C16.6377 13.2371 16.5769 13.0904 16.5769 12.9374C16.5769 12.7844 16.6377 12.6376 16.7459 12.5295C16.8541 12.4213 17.0008 12.3605 17.1538 12.3605C17.3068 12.3605 17.4536 12.4213 17.5618 12.5295C17.67 12.6376 17.7308 12.7844 17.7308 12.9374ZM12.3461 17.2451C12.3461 17.3981 12.2854 17.5448 12.1772 17.653C12.069 17.7612 11.9222 17.822 11.7692 17.822C11.6162 17.822 11.4695 17.7612 11.3613 17.653C11.2531 17.5448 11.1923 17.3981 11.1923 17.2451C11.1923 17.0921 11.2531 16.9453 11.3613 16.8371C11.4695 16.7289 11.6162 16.6682 11.7692 16.6682C11.9222 16.6682 12.069 16.7289 12.1772 16.8371C12.2854 16.9453 12.3461 17.0921 12.3461 17.2451ZM12.3461 12.9374C12.3461 13.0904 12.2854 13.2371 12.1772 13.3453C12.069 13.4535 11.9222 13.5143 11.7692 13.5143C11.6162 13.5143 11.4695 13.4535 11.3613 13.3453C11.2531 13.2371 11.1923 13.0904 11.1923 12.9374C11.1923 12.7844 11.2531 12.6376 11.3613 12.5295C11.4695 12.4213 11.6162 12.3605 11.7692 12.3605C11.9222 12.3605 12.069 12.4213 12.1772 12.5295C12.2854 12.6376 12.3461 12.7844 12.3461 12.9374ZM6.96152 17.2451C6.96152 17.3981 6.90074 17.5448 6.79255 17.653C6.68435 17.7612 6.53761 17.822 6.3846 17.822C6.23159 17.822 6.08485 17.7612 5.97666 17.653C5.86846 17.5448 5.80768 17.3981 5.80768 17.2451C5.80768 17.0921 5.86846 16.9453 5.97666 16.8371C6.08485 16.7289 6.23159 16.6682 6.3846 16.6682C6.53761 16.6682 6.68435 16.7289 6.79255 16.8371C6.90074 16.9453 6.96152 17.0921 6.96152 17.2451ZM6.96152 12.9374C6.96152 13.0904 6.90074 13.2371 6.79255 13.3453C6.68435 13.4535 6.53761 13.5143 6.3846 13.5143C6.23159 13.5143 6.08485 13.4535 5.97666 13.3453C5.86846 13.2371 5.80768 13.0904 5.80768 12.9374C5.80768 12.7844 5.86846 12.6376 5.97666 12.5295C6.08485 12.4213 6.23159 12.3605 6.3846 12.3605C6.53761 12.3605 6.68435 12.4213 6.79255 12.5295C6.90074 12.6376 6.96152 12.7844 6.96152 12.9374Z"
    fill="currentColor" stroke="currentColor" />
</svg>