<svg xmlns="http://www.w3.org/2000/svg" fill="none" viewBox="0 0 50 50">
  <path
    d="M25.5 0.375C11.6937 0.375 0.5 11.744 0.5 25.7665C0.5 37.6645 8.56667 47.62 19.4417 50.375C19.325 50.0322 19.25 49.6344 19.25 49.1414V44.8016C18.2354 44.8016 16.5354 44.8016 16.1083 44.8016C14.3979 44.8016 12.8771 44.0546 12.1396 42.6666C11.3208 41.1241 11.1792 38.7648 9.15 37.3217C8.54792 36.8414 9.00625 36.2933 9.7 36.3674C10.9812 36.7356 12.0437 37.6285 13.0437 38.9531C14.0396 40.2798 14.5083 40.5802 16.3687 40.5802C17.2708 40.5802 18.6208 40.5273 19.8917 40.3242C20.575 38.5616 21.7562 36.9387 23.2 36.1727C14.875 35.3031 10.9021 31.0965 10.9021 25.3856C10.9021 22.9268 11.9333 20.5485 13.6854 18.5447C13.1104 16.5557 12.3875 12.4994 13.9062 10.9548C17.6521 10.9548 19.9167 13.422 20.4604 14.0885C22.3271 13.4389 24.3771 13.0707 26.5312 13.0707C28.6896 13.0707 30.7479 13.4389 32.6187 14.0927C33.1562 13.4304 35.4229 10.9548 39.1771 10.9548C40.7021 12.5015 39.9708 16.5747 39.3896 18.5595C41.1312 20.5591 42.1562 22.9311 42.1562 25.3856C42.1562 31.0923 38.1896 35.2967 29.8771 36.1706C32.1646 37.383 33.8333 40.7897 33.8333 43.3564V49.1414C33.8333 49.3615 33.7854 49.5202 33.7604 49.7085C43.5021 46.2404 50.5 36.8456 50.5 25.7665C50.5 11.744 39.3062 0.375 25.5 0.375Z"
    fill="#0F172A" />
</svg>