<svg  viewBox="0 0 50 50" fill="none" xmlns="http://www.w3.org/2000/svg">
<path d="M39.5833 0.375H10.4167C4.66458 0.375 0 5.03958 0 10.7917V39.9583C0 45.7104 4.66458 50.375 10.4167 50.375H39.5833C45.3375 50.375 50 45.7104 50 39.9583V10.7917C50 5.03958 45.3375 0.375 39.5833 0.375ZM16.6667 39.9583H10.4167V17.0417H16.6667V39.9583ZM13.5417 14.4C11.5292 14.4 9.89583 12.7542 9.89583 10.725C9.89583 8.69583 11.5292 7.05 13.5417 7.05C15.5542 7.05 17.1875 8.69583 17.1875 10.725C17.1875 12.7542 15.5562 14.4 13.5417 14.4ZM41.6667 39.9583H35.4167V28.2833C35.4167 21.2667 27.0833 21.7979 27.0833 28.2833V39.9583H20.8333V17.0417H27.0833V20.7188C29.9917 15.3313 41.6667 14.9333 41.6667 25.8771V39.9583Z" fill="#0F172A"/>
</svg>
